<?xml version="1.0" encoding="UTF-8"?>
<!DOCTYPE svg PUBLIC "-//W3C//DTD SVG 1.1//EN" "http://www.w3.org/Graphics/SVG/1.1/DTD/svg11.dtd">
<svg xmlns="http://www.w3.org/2000/svg" version="1.1" width="32px" height="32px" style="shape-rendering:geometricPrecision; text-rendering:geometricPrecision; image-rendering:optimizeQuality; fill-rule:evenodd; clip-rule:evenodd" xmlns:xlink="http://www.w3.org/1999/xlink">
<g><path style="opacity:0.886" fill="#eaeef6" d="M 24.5,0.5 C 26.4147,0.215521 28.0813,0.548855 29.5,1.5C 25.8707,1.4825 22.8707,2.81583 20.5,5.5C 19.8333,4.83333 19.1667,4.16667 18.5,3.5C 20.5168,2.47061 22.5168,1.47061 24.5,0.5 Z"/></g>
<g><path style="opacity:0.625" fill="#fafbfb" d="M 18.5,3.5 C 19.1667,4.16667 19.8333,4.83333 20.5,5.5C 17.8333,5.5 15.1667,5.5 12.5,5.5C 11.8333,5.5 11.5,5.16667 11.5,4.5C 13.6074,3.53178 15.9407,3.19845 18.5,3.5 Z"/></g>
<g><path style="opacity:1" fill="#4a72bf" d="M 29.5,1.5 C 30.8333,2.83333 30.8333,4.16667 29.5,5.5C 29.5,4.5 29.5,3.5 29.5,2.5C 28.209,2.26269 27.209,2.59603 26.5,3.5C 25.1283,4.51163 23.795,5.51163 22.5,6.5C 21.5,6.83333 20.8333,7.5 20.5,8.5C 18.6208,7.65859 16.6208,7.32526 14.5,7.5C 16.5,6.83333 18.5,6.16667 20.5,5.5C 22.8707,2.81583 25.8707,1.4825 29.5,1.5 Z"/></g>
<g><path style="opacity:1" fill="#debf35" d="M 26.5,3.5 C 27.3764,3.36912 28.0431,3.70245 28.5,4.5C 28.0576,5.73867 27.3909,6.73867 26.5,7.5C 25.4324,6.56552 24.099,6.23219 22.5,6.5C 23.795,5.51163 25.1283,4.51163 26.5,3.5 Z"/></g>
<g><path style="opacity:1" fill="#526fac" d="M 26.5,3.5 C 27.209,2.59603 28.209,2.26269 29.5,2.5C 29.5,3.5 29.5,4.5 29.5,5.5C 28.8897,7.43406 27.8897,9.10072 26.5,10.5C 25.8333,10.5 25.1667,10.5 24.5,10.5C 25.1667,9.5 25.8333,8.5 26.5,7.5C 27.3909,6.73867 28.0576,5.73867 28.5,4.5C 28.0431,3.70245 27.3764,3.36912 26.5,3.5 Z"/></g>
<g><path style="opacity:0.998" fill="#eff2f6" d="M 24.5,0.5 C 24.5,0.166667 24.5,-0.166667 24.5,-0.5C 26.8333,-0.5 29.1667,-0.5 31.5,-0.5C 31.5,2.5 31.5,5.5 31.5,8.5C 29.6535,10.0301 28.6535,12.0301 28.5,14.5C 27.8333,13.5 27.1667,12.5 26.5,11.5C 26.5,11.1667 26.5,10.8333 26.5,10.5C 27.8897,9.10072 28.8897,7.43406 29.5,5.5C 30.8333,4.16667 30.8333,2.83333 29.5,1.5C 28.0813,0.548855 26.4147,0.215521 24.5,0.5 Z"/></g>
<g><path style="opacity:1" fill="#f4f6f9" d="M 11.5,4.5 C 11.5,5.16667 11.8333,5.5 12.5,5.5C 9.78718,7.21351 7.78718,9.54685 6.5,12.5C 5.52693,14.9479 5.1936,17.6146 5.5,20.5C 4.52333,17.7131 4.19,14.7131 4.5,11.5C 5.83333,8.16667 8.16667,5.83333 11.5,4.5 Z"/></g>
<g><path style="opacity:1" fill="#507ac8" d="M 12.5,5.5 C 15.1667,5.5 17.8333,5.5 20.5,5.5C 18.5,6.16667 16.5,6.83333 14.5,7.5C 11.796,7.66957 10.1293,9.00291 9.5,11.5C 8.83333,11.8333 8.16667,12.1667 7.5,12.5C 7.16667,12.5 6.83333,12.5 6.5,12.5C 7.78718,9.54685 9.78718,7.21351 12.5,5.5 Z"/></g>
<g><path style="opacity:1" fill="#aa6732" d="M 14.5,7.5 C 16.6208,7.32526 18.6208,7.65859 20.5,8.5C 22.1788,8.28519 23.1788,8.95186 23.5,10.5C 22.8333,10.8333 22.1667,11.1667 21.5,11.5C 19.2849,8.65989 16.6182,7.99323 13.5,9.5C 11.9731,9.42702 10.9731,10.0937 10.5,11.5C 10.1667,11.5 9.83333,11.5 9.5,11.5C 10.1293,9.00291 11.796,7.66957 14.5,7.5 Z"/></g>
<g><path style="opacity:1" fill="#e7c631" d="M 22.5,6.5 C 24.099,6.23219 25.4324,6.56552 26.5,7.5C 25.8333,8.5 25.1667,9.5 24.5,10.5C 24.1667,10.5 23.8333,10.5 23.5,10.5C 23.1788,8.95186 22.1788,8.28519 20.5,8.5C 20.8333,7.5 21.5,6.83333 22.5,6.5 Z"/></g>
<g><path style="opacity:1" fill="#4a5d93" d="M 13.5,9.5 C 16.6182,7.99323 19.2849,8.65989 21.5,11.5C 20.8333,12.8333 19.8333,13.8333 18.5,14.5C 17.8333,14.1667 17.1667,13.8333 16.5,13.5C 16.4456,11.368 15.4456,10.0347 13.5,9.5 Z"/></g>
<g><path style="opacity:1" fill="#537dcd" d="M 24.5,10.5 C 25.1667,10.5 25.8333,10.5 26.5,10.5C 26.5,10.8333 26.5,11.1667 26.5,11.5C 26.5,13.8333 26.5,16.1667 26.5,18.5C 25.8333,18.5 25.5,18.8333 25.5,19.5C 24.8333,19.5 24.5,19.1667 24.5,18.5C 24.5,16.8333 24.5,15.1667 24.5,13.5C 24.5,12.8333 24.1667,12.5 23.5,12.5C 23.8333,11.8333 24.1667,11.1667 24.5,10.5 Z"/></g>
<g><path style="opacity:0.979" fill="#fafaf9" d="M 26.5,11.5 C 27.1667,12.5 27.8333,13.5 28.5,14.5C 28.6747,16.6208 28.3414,18.6208 27.5,20.5C 26.6618,20.1583 26.3284,19.4916 26.5,18.5C 26.5,16.1667 26.5,13.8333 26.5,11.5 Z"/></g>
<g><path style="opacity:1" fill="#4e65a8" d="M 13.5,9.5 C 15.4456,10.0347 16.4456,11.368 16.5,13.5C 15.8333,13.5 15.5,13.8333 15.5,14.5C 15.1667,14.5 14.8333,14.5 14.5,14.5C 13.0736,13.6588 11.7403,12.6588 10.5,11.5C 10.9731,10.0937 11.9731,9.42702 13.5,9.5 Z"/></g>
<g><path style="opacity:1" fill="#921e24" d="M 12.5,10.5 C 14.337,10.6395 14.6704,11.3061 13.5,12.5C 12.7025,12.0431 12.3691,11.3764 12.5,10.5 Z"/></g>
<g><path style="opacity:1" fill="#a2683b" d="M 9.5,11.5 C 9.5,12.5 9.5,13.5 9.5,14.5C 8.90326,14.7352 8.56993,15.2352 8.5,16C 9.31952,17.8003 9.98619,19.6336 10.5,21.5C 10.5,22.1667 10.5,22.8333 10.5,23.5C 9.22235,23.2178 8.22235,22.5511 7.5,21.5C 7.88213,18.6463 7.88213,15.6463 7.5,12.5C 8.16667,12.1667 8.83333,11.8333 9.5,11.5 Z"/></g>
<g><path style="opacity:1" fill="#4279cf" d="M 9.5,11.5 C 9.83333,11.5 10.1667,11.5 10.5,11.5C 11.7403,12.6588 13.0736,13.6588 14.5,14.5C 13.7784,14.9175 13.2784,15.5842 13,16.5C 12.2904,15.0267 11.1238,14.3601 9.5,14.5C 9.5,13.5 9.5,12.5 9.5,11.5 Z"/></g>
<g><path style="opacity:1" fill="#8a1c26" d="M 16.5,13.5 C 17.1667,13.8333 17.8333,14.1667 18.5,14.5C 18.1667,15.5 17.5,16.1667 16.5,16.5C 16.1667,15.8333 15.8333,15.1667 15.5,14.5C 15.5,13.8333 15.8333,13.5 16.5,13.5 Z"/></g>
<g><path style="opacity:1" fill="#5076be" d="M 6.5,12.5 C 6.83333,12.5 7.16667,12.5 7.5,12.5C 7.88213,15.6463 7.88213,18.6463 7.5,21.5C 6.09368,21.9731 5.42702,22.9731 5.5,24.5C 5.16667,24.5 4.83333,24.5 4.5,24.5C 4.5,23.8333 4.5,23.1667 4.5,22.5C 4.83333,21.8333 5.16667,21.1667 5.5,20.5C 5.1936,17.6146 5.52693,14.9479 6.5,12.5 Z"/></g>
<g><path style="opacity:1" fill="#cbaf2e" d="M 23.5,10.5 C 23.8333,10.5 24.1667,10.5 24.5,10.5C 24.1667,11.1667 23.8333,11.8333 23.5,12.5C 22.5,12.8333 21.8333,13.5 21.5,14.5C 19.8333,15.5 18.5,16.8333 17.5,18.5C 15.8333,19.5 14.5,20.8333 13.5,22.5C 12.8333,22.5 12.5,22.8333 12.5,23.5C 11.8333,23.8333 11.1667,24.1667 10.5,24.5C 10.5,24.1667 10.5,23.8333 10.5,23.5C 10.5,22.8333 10.5,22.1667 10.5,21.5C 11.4916,21.6716 12.1583,21.3382 12.5,20.5C 13.5,20.1667 14.1667,19.5 14.5,18.5C 15.5,18.1667 16.1667,17.5 16.5,16.5C 17.5,16.1667 18.1667,15.5 18.5,14.5C 19.8333,13.8333 20.8333,12.8333 21.5,11.5C 22.1667,11.1667 22.8333,10.8333 23.5,10.5 Z"/></g>
<g><path style="opacity:1" fill="#555a8d" d="M 21.5,14.5 C 21.7678,16.099 21.4345,17.4324 20.5,18.5C 19.2022,19.1157 18.2022,19.1157 17.5,18.5C 18.5,16.8333 19.8333,15.5 21.5,14.5 Z"/></g>
<g><path style="opacity:1" fill="#4d5b90" d="M 23.5,12.5 C 24.1667,12.5 24.5,12.8333 24.5,13.5C 23.6436,16.8732 21.977,19.8732 19.5,22.5C 18.6618,22.1583 18.3284,21.4916 18.5,20.5C 19.5,20.1667 20.1667,19.5 20.5,18.5C 21.4345,17.4324 21.7678,16.099 21.5,14.5C 21.8333,13.5 22.5,12.8333 23.5,12.5 Z"/></g>
<g><path style="opacity:1" fill="#4763a4" d="M 9.5,14.5 C 11.1238,14.3601 12.2904,15.0267 13,16.5C 13.2784,15.5842 13.7784,14.9175 14.5,14.5C 14.8333,14.5 15.1667,14.5 15.5,14.5C 15.8333,15.1667 16.1667,15.8333 16.5,16.5C 16.1667,17.5 15.5,18.1667 14.5,18.5C 13.6136,17.2241 12.6136,17.2241 11.5,18.5C 11.8627,19.1835 12.1961,19.8501 12.5,20.5C 12.1583,21.3382 11.4916,21.6716 10.5,21.5C 9.98619,19.6336 9.31952,17.8003 8.5,16C 8.56993,15.2352 8.90326,14.7352 9.5,14.5 Z"/></g>
<g><path style="opacity:1" fill="#862127" d="M 14.5,18.5 C 14.1667,19.5 13.5,20.1667 12.5,20.5C 12.1961,19.8501 11.8627,19.1835 11.5,18.5C 12.6136,17.2241 13.6136,17.2241 14.5,18.5 Z"/></g>
<g><path style="opacity:1" fill="#454e75" d="M 17.5,18.5 C 18.2022,19.1157 19.2022,19.1157 20.5,18.5C 20.1667,19.5 19.5,20.1667 18.5,20.5C 16.9891,21.5025 15.3224,22.1692 13.5,22.5C 14.5,20.8333 15.8333,19.5 17.5,18.5 Z"/></g>
<g><path style="opacity:1" fill="#b06631" d="M 24.5,13.5 C 24.5,15.1667 24.5,16.8333 24.5,18.5C 23.197,20.1423 21.8637,21.8089 20.5,23.5C 20.1667,23.5 19.8333,23.5 19.5,23.5C 19.5,23.1667 19.5,22.8333 19.5,22.5C 21.977,19.8732 23.6436,16.8732 24.5,13.5 Z"/></g>
<g><path style="opacity:1" fill="#557bc5" d="M 24.5,18.5 C 24.5,19.1667 24.8333,19.5 25.5,19.5C 24.8763,21.754 23.543,23.4206 21.5,24.5C 21.5,23.8333 21.1667,23.5 20.5,23.5C 21.8637,21.8089 23.197,20.1423 24.5,18.5 Z"/></g>
<g><path style="opacity:0.896" fill="#f0f2f5" d="M 4.5,11.5 C 4.19,14.7131 4.52333,17.7131 5.5,20.5C 5.16667,21.1667 4.83333,21.8333 4.5,22.5C 1.64028,24.6055 0.973613,27.2722 2.5,30.5C 1.83333,30.5 1.5,30.8333 1.5,31.5C 0.833333,31.5 0.166667,31.5 -0.5,31.5C -0.5,29.1667 -0.5,26.8333 -0.5,24.5C 2.67644,20.7363 4.34311,16.403 4.5,11.5 Z"/></g>
<g><path style="opacity:1" fill="#a24d2b" d="M 18.5,20.5 C 18.3284,21.4916 18.6618,22.1583 19.5,22.5C 19.5,22.8333 19.5,23.1667 19.5,23.5C 17.1256,24.6861 14.7922,24.6861 12.5,23.5C 12.5,22.8333 12.8333,22.5 13.5,22.5C 15.3224,22.1692 16.9891,21.5025 18.5,20.5 Z"/></g>
<g><path style="opacity:1" fill="#e0c138" d="M 7.5,21.5 C 8.22235,22.5511 9.22235,23.2178 10.5,23.5C 10.5,23.8333 10.5,24.1667 10.5,24.5C 10.5,24.8333 10.5,25.1667 10.5,25.5C 9.39105,25.5569 8.39105,25.8902 7.5,26.5C 7.16667,25.5 6.5,24.8333 5.5,24.5C 5.42702,22.9731 6.09368,21.9731 7.5,21.5 Z"/></g>
<g><path style="opacity:0.923" fill="#f5f6f7" d="M 26.5,18.5 C 26.3284,19.4916 26.6618,20.1583 27.5,20.5C 26.4778,23.5223 24.4778,25.5223 21.5,26.5C 21.5,25.8333 21.5,25.1667 21.5,24.5C 23.543,23.4206 24.8763,21.754 25.5,19.5C 25.5,18.8333 25.8333,18.5 26.5,18.5 Z"/></g>
<g><path style="opacity:1" fill="#406ec3" d="M 12.5,23.5 C 14.7922,24.6861 17.1256,24.6861 19.5,23.5C 19.8333,23.5 20.1667,23.5 20.5,23.5C 21.1667,23.5 21.5,23.8333 21.5,24.5C 17.7936,25.0869 14.127,25.7536 10.5,26.5C 10.5,26.1667 10.5,25.8333 10.5,25.5C 10.5,25.1667 10.5,24.8333 10.5,24.5C 11.1667,24.1667 11.8333,23.8333 12.5,23.5 Z"/></g>
<g><path style="opacity:1" fill="#4975c6" d="M 4.5,22.5 C 4.5,23.1667 4.5,23.8333 4.5,24.5C 3.21722,28.7512 4.21722,29.4179 7.5,26.5C 8.39105,25.8902 9.39105,25.5569 10.5,25.5C 10.5,25.8333 10.5,26.1667 10.5,26.5C 10.5,26.8333 10.5,27.1667 10.5,27.5C 8.04646,29.0598 5.37979,30.0598 2.5,30.5C 0.973613,27.2722 1.64028,24.6055 4.5,22.5 Z"/></g>
<g><path style="opacity:0.883" fill="#e8edf6" d="M 21.5,24.5 C 21.5,25.1667 21.5,25.8333 21.5,26.5C 18.4928,28.1745 15.1595,28.8412 11.5,28.5C 11.5,27.8333 11.1667,27.5 10.5,27.5C 10.5,27.1667 10.5,26.8333 10.5,26.5C 14.127,25.7536 17.7936,25.0869 21.5,24.5 Z"/></g>
<g><path style="opacity:1" fill="#ddbe34" d="M 4.5,24.5 C 4.83333,24.5 5.16667,24.5 5.5,24.5C 6.5,24.8333 7.16667,25.5 7.5,26.5C 4.21722,29.4179 3.21722,28.7512 4.5,24.5 Z"/></g>
<g><path style="opacity:0.858" fill="#f6f8fa" d="M 10.5,27.5 C 11.1667,27.5 11.5,27.8333 11.5,28.5C 10.6935,29.7281 9.69354,30.7281 8.5,31.5C 6.16667,31.5 3.83333,31.5 1.5,31.5C 1.5,30.8333 1.83333,30.5 2.5,30.5C 5.37979,30.0598 8.04646,29.0598 10.5,27.5 Z"/></g>
</svg>
